# xmcd
#
# Track frame offsets: 
#        150
#        19623
#        34019
#        47380
#        65795
#        79344
#        90365
#        106808
#        117667
#        133404
#        152819
#        166285
#        184248
#        198813
#        213500
#        229891
#        250516
#
# Disc length: 3532 seconds
#
# Revision: 0
# Processed by: cddbd v1.5.2PL0 Copyright (c) Steve Scherf et al.
# Submitted via: ExactAudioCopy v0.99pb5
#
DISCID=e30dca11
DTITLE=Various Artist - Texas Music - TexMix 2005 Fall
DYEAR=2005
DGENRE=Country
TTITLE0=Otra Vez - The Small Stars
TTITLE1=Six Pack Mornin' - Kinberly Hassell
TTITLE2=Steady At The Wheel - Shooter Jennings
TTITLE3=Never Too Late To Change - Wear That Shoe
TTITLE4=White Trash Paradise - Darryl Lee Rush
TTITLE5=Hot Love - Buttercup
TTITLE6=Yellow Wine - Pauline Reese
TTITLE7=Days We Remember - Thrift Store Cowboys
TTITLE8=Just Like Me - The Magnolia Band
TTITLE9=Are You sincere - Bobby Bare
TTITLE10=Standin' On The Corner (Blue Yodel No. 9) - Jimmy Dale Gilmor
TTITLE10=e
TTITLE11=Bigger Wheel - Stephen Bruton
TTITLE12=Friends Forever - Old 97's
TTITLE13=For Bethany - Betty Soo
TTITLE14=I'm Alright - Mark David Manders
TTITLE15=Slew Foot - James McMurtry
TTITLE16=8 Roses - Honeybrowne
EXTD=
EXTT0=
EXTT1=
EXTT2=
EXTT3=
EXTT4=
EXTT5=
EXTT6=
EXTT7=
EXTT8=
EXTT9=
EXTT10=
EXTT11=
EXTT12=
EXTT13=
EXTT14=
EXTT15=
EXTT16=
PLAYORDER=
